<?xml version="1.0" encoding="utf-8"?>
<svg viewBox="90.168 193.478 211.821 90.592" xmlns="http://www.w3.org/2000/svg">
  <path d="M 143.65 212.148 Q 143.65 214.843 142.946 218.088 Q 142.242 221.333 141.139 224.639 Q 140.037 227.946 138.751 231.069 Q 137.466 234.191 136.363 236.579 Q 135.751 237.926 134.863 239.978 Q 133.975 242.029 132.873 244.356 Q 131.771 246.682 130.516 249.04 Q 129.261 251.397 127.914 253.265 Q 126.567 255.132 125.158 256.326 Q 123.75 257.52 122.342 257.52 Q 120.382 257.52 119.556 256.081 Q 118.729 254.642 118.729 252.867 Q 118.729 251.152 119.311 249.223 Q 119.892 247.295 120.78 245.397 Q 121.668 243.498 122.74 241.723 Q 123.811 239.947 124.73 238.539 Q 123.505 238.233 122.342 237.437 Q 121.178 236.641 120.627 235.538 Q 119.648 233.395 118.607 230.701 Q 117.566 228.007 116.739 225.221 Q 115.912 222.435 115.361 219.649 Q 114.81 216.863 114.81 214.536 Q 114.81 213.434 115.055 212.118 Q 115.3 210.801 115.882 209.669 Q 116.464 208.536 117.413 207.77 Q 118.362 207.005 119.77 207.005 Q 121.362 207.005 122.587 208.199 Q 123.811 209.393 124.76 211.23 Q 125.709 213.067 126.383 215.332 Q 127.056 217.598 127.546 219.802 Q 128.036 222.007 128.342 223.843 Q 128.648 225.68 128.893 226.721 Q 129.138 225.803 129.72 223.935 Q 130.302 222.068 131.128 219.802 Q 131.955 217.537 133.026 215.149 Q 134.098 212.761 135.292 210.801 Q 136.486 208.842 137.833 207.587 Q 139.18 206.332 140.588 206.332 Q 141.507 206.332 142.119 207.005 Q 142.731 207.679 143.068 208.597 Q 143.405 209.516 143.527 210.495 Q 143.65 211.475 143.65 212.148 Z M 170.098 236.763 Q 170.098 240.131 169.425 243.437 Q 168.751 246.744 167.159 249.346 Q 165.567 251.948 162.904 253.54 Q 160.24 255.132 156.26 255.132 Q 152.342 255.132 149.709 253.571 Q 147.076 252.009 145.514 249.438 Q 143.953 246.866 143.31 243.621 Q 142.667 240.376 142.667 237.008 Q 142.667 233.334 143.524 229.722 Q 143.708 228.742 144.229 226.997 Q 144.749 225.252 145.576 223.568 Q 146.402 221.884 147.474 220.659 Q 148.545 219.435 149.831 219.435 Q 151.056 219.435 151.79 220.108 Q 152.525 220.782 152.954 221.792 Q 153.382 222.803 153.505 223.935 Q 153.627 225.068 153.627 225.987 Q 153.627 227.395 153.413 228.742 Q 153.199 230.089 152.954 231.436 Q 152.709 233.273 152.495 235.11 Q 152.28 236.947 152.28 238.784 Q 152.28 239.702 152.372 240.835 Q 152.464 241.968 152.831 243.009 Q 153.199 244.05 153.872 244.754 Q 154.546 245.458 155.77 245.458 Q 157.362 245.458 158.312 244.601 Q 159.261 243.743 159.72 242.458 Q 160.179 241.172 160.302 239.702 Q 160.424 238.233 160.424 237.008 Q 160.424 234.314 160.057 231.712 Q 159.689 229.109 159.383 226.415 Q 159.322 226.109 159.322 225.558 Q 159.322 224.639 159.628 223.721 Q 159.934 222.803 160.485 222.068 Q 161.036 221.333 161.832 220.874 Q 162.628 220.415 163.608 220.415 Q 164.955 220.415 165.996 221.364 Q 167.037 222.313 167.741 223.813 Q 168.445 225.313 168.904 227.181 Q 169.364 229.048 169.639 230.854 Q 169.915 232.661 170.007 234.253 Q 170.098 235.845 170.098 236.763 Z M 211 234.069 Q 211 235.232 211 237.222 Q 211 239.212 210.909 241.539 Q 210.817 243.866 210.511 246.223 Q 210.204 248.581 209.561 250.479 Q 208.919 252.377 207.939 253.601 Q 206.959 254.826 205.428 254.826 Q 204.081 254.826 203.377 253.693 Q 202.673 252.561 202.367 251.03 Q 202.061 249.499 202.03 247.907 Q 202 246.315 202 245.397 Q 202 242.641 202.183 240.008 Q 202.367 237.375 202.367 234.62 Q 202.367 234.314 202.367 233.518 Q 202.367 232.722 202.244 231.926 Q 202.122 231.13 201.846 230.518 Q 201.571 229.905 201.02 229.905 Q 199.918 229.905 199.244 231.038 Q 198.571 232.171 198.142 233.702 Q 197.713 235.232 197.53 236.732 Q 197.346 238.233 197.285 238.967 Q 197.162 239.763 197.07 241.355 Q 196.979 242.947 196.826 244.846 Q 196.672 246.744 196.336 248.734 Q 195.999 250.724 195.478 252.346 Q 194.958 253.969 194.162 255.01 Q 193.366 256.051 192.203 256.051 Q 190.733 256.051 189.937 254.765 Q 189.141 253.479 188.774 251.765 Q 188.406 250.05 188.315 248.274 Q 188.223 246.499 188.223 245.519 Q 188.223 244.478 188.253 243.498 Q 188.284 242.519 188.284 241.478 Q 188.284 241.049 188.284 240.07 Q 188.284 239.09 188.253 237.896 Q 188.223 236.702 188.131 235.416 Q 188.039 234.13 187.855 233.059 Q 187.672 231.987 187.304 231.314 Q 186.937 230.64 186.447 230.64 Q 185.651 230.64 184.977 231.65 Q 184.304 232.661 183.814 234.038 Q 183.324 235.416 183.049 236.763 Q 182.773 238.11 182.773 238.722 L 182.773 239.09 Q 182.773 242.029 183.141 244.846 Q 183.508 247.662 183.508 250.601 Q 183.508 252.316 182.406 253.755 Q 181.304 255.193 179.344 255.193 Q 177.936 255.193 177.017 254.122 Q 176.099 253.05 175.487 251.336 Q 174.874 249.621 174.538 247.57 Q 174.201 245.519 174.078 243.529 Q 173.956 241.539 173.925 239.916 Q 173.895 238.294 173.895 237.498 Q 173.895 236.579 173.864 234.804 Q 173.833 233.028 173.925 230.946 Q 174.017 228.864 174.262 226.691 Q 174.507 224.517 175.058 222.741 Q 175.609 220.966 176.497 219.833 Q 177.385 218.7 178.793 218.7 Q 180.385 218.7 181.395 219.557 Q 182.406 220.415 182.406 222.129 Q 182.406 222.496 182.375 222.864 Q 182.345 223.231 182.283 223.537 Q 182.957 222.558 183.937 221.547 Q 184.916 220.537 186.049 219.71 Q 187.182 218.884 188.468 218.363 Q 189.753 217.843 191.039 217.843 Q 192.264 217.843 193.244 218.516 Q 194.223 219.19 194.958 220.2 Q 195.693 221.211 196.183 222.374 Q 196.672 223.537 196.856 224.578 Q 197.468 223.476 198.356 222.343 Q 199.244 221.211 200.285 220.353 Q 201.326 219.496 202.581 218.945 Q 203.836 218.394 205.183 218.394 Q 206.469 218.394 207.388 219.312 Q 208.306 220.231 208.98 221.67 Q 209.653 223.109 210.021 224.915 Q 210.388 226.721 210.633 228.466 Q 210.878 230.211 210.939 231.712 Q 211 233.212 211 234.069 Z M 240.697 217.659 Q 240.697 218.823 240.483 219.894 Q 240.268 220.966 239.717 221.762 Q 239.166 222.558 238.248 223.017 Q 237.329 223.476 235.982 223.476 Q 234.452 223.476 233.717 222.864 Q 232.982 222.251 232.706 221.364 Q 232.431 220.476 232.431 219.435 Q 232.431 218.394 232.339 217.506 Q 232.247 216.618 231.88 216.006 Q 231.512 215.394 230.533 215.394 Q 229.614 215.394 229.033 216.802 Q 228.451 218.21 228.084 220.047 Q 227.716 221.884 227.594 223.629 Q 227.471 225.374 227.471 225.987 Q 228.267 225.864 229.002 225.772 Q 229.737 225.68 230.594 225.68 Q 231.451 225.68 232.37 225.864 Q 233.288 226.048 234.084 226.446 Q 234.88 226.844 235.37 227.548 Q 235.86 228.252 235.86 229.293 Q 235.86 230.395 234.911 231.252 Q 233.962 232.11 232.645 232.691 Q 231.329 233.273 229.982 233.64 Q 228.635 234.008 227.839 234.13 Q 228.022 238.355 228.022 242.641 Q 228.022 246.682 227.839 250.601 Q 227.716 252.499 226.522 253.724 Q 225.328 254.949 223.43 254.949 Q 222.389 254.949 221.654 254.551 Q 220.92 254.153 220.43 253.479 Q 219.94 252.805 219.664 251.948 Q 219.389 251.091 219.328 250.173 Q 219.021 246.499 218.838 242.794 Q 218.654 239.09 218.715 235.355 Q 218.287 235.416 217.889 235.416 Q 217.491 235.416 217.062 235.416 Q 216.327 235.416 215.286 235.232 Q 214.245 235.049 213.296 234.589 Q 212.347 234.13 211.674 233.457 Q 211 232.783 211 231.742 Q 211 230.395 211.888 229.477 Q 212.776 228.558 214.031 227.977 Q 215.286 227.395 216.664 227.15 Q 218.042 226.905 219.083 226.783 L 219.083 225.803 Q 219.083 222.803 219.634 219.374 Q 220.185 215.945 221.593 213.006 Q 223.001 210.067 225.451 208.138 Q 227.9 206.209 231.696 206.209 Q 234.084 206.209 235.799 207.219 Q 237.513 208.23 238.615 209.852 Q 239.717 211.475 240.207 213.526 Q 240.697 215.577 240.697 217.659 Z M 265.25 236.763 Q 265.25 240.131 264.576 243.437 Q 263.903 246.744 262.311 249.346 Q 260.719 251.948 258.055 253.54 Q 255.392 255.132 251.412 255.132 Q 247.493 255.132 244.86 253.571 Q 242.227 252.009 240.666 249.438 Q 239.105 246.866 238.462 243.621 Q 237.819 240.376 237.819 237.008 Q 237.819 233.334 238.676 229.722 Q 238.86 228.742 239.38 226.997 Q 239.901 225.252 240.727 223.568 Q 241.554 221.884 242.625 220.659 Q 243.697 219.435 244.983 219.435 Q 246.207 219.435 246.942 220.108 Q 247.677 220.782 248.105 221.792 Q 248.534 222.803 248.657 223.935 Q 248.779 225.068 248.779 225.987 Q 248.779 227.395 248.565 228.742 Q 248.35 230.089 248.105 231.436 Q 247.861 233.273 247.646 235.11 Q 247.432 236.947 247.432 238.784 Q 247.432 239.702 247.524 240.835 Q 247.616 241.968 247.983 243.009 Q 248.35 244.05 249.024 244.754 Q 249.697 245.458 250.922 245.458 Q 252.514 245.458 253.463 244.601 Q 254.412 243.743 254.871 242.458 Q 255.331 241.172 255.453 239.702 Q 255.576 238.233 255.576 237.008 Q 255.576 234.314 255.208 231.712 Q 254.841 229.109 254.535 226.415 Q 254.473 226.109 254.473 225.558 Q 254.473 224.639 254.78 223.721 Q 255.086 222.803 255.637 222.068 Q 256.188 221.333 256.984 220.874 Q 257.78 220.415 258.76 220.415 Q 260.107 220.415 261.148 221.364 Q 262.188 222.313 262.893 223.813 Q 263.597 225.313 264.056 227.181 Q 264.515 229.048 264.791 230.854 Q 265.066 232.661 265.158 234.253 Q 265.25 235.845 265.25 236.763 Z M 280.435 217.169 Q 280.435 220.476 280.16 223.813 Q 279.884 227.15 279.884 230.518 Q 279.884 234.865 280.16 239.212 Q 280.435 243.56 280.435 247.968 Q 280.435 249.07 280.313 250.448 Q 280.19 251.826 279.731 252.989 Q 279.272 254.153 278.353 254.949 Q 277.435 255.745 275.904 255.745 Q 274.435 255.745 273.363 254.306 Q 272.292 252.867 271.587 250.632 Q 270.883 248.397 270.424 245.642 Q 269.965 242.886 269.75 240.284 Q 269.536 237.682 269.444 235.508 Q 269.352 233.334 269.352 232.293 Q 269.352 231.13 269.444 228.926 Q 269.536 226.721 269.842 224.15 Q 270.148 221.578 270.669 218.914 Q 271.189 216.251 272.047 214.077 Q 272.904 211.904 274.098 210.526 Q 275.292 209.148 276.945 209.148 Q 278.292 209.148 278.996 210.036 Q 279.7 210.924 280.007 212.179 Q 280.313 213.434 280.374 214.812 Q 280.435 216.19 280.435 217.169 Z" style="white-space: pre; fill: rgb(231, 98, 32);"/>
  <path style="fill: rgb(231, 98, 32);" d="M 92.127 262.432 C 92.127 262.432 139.312 254.514 191.423 262.943 C 243.534 271.372 298.236 255.025 298.236 255.025 C 298.236 255.025 269.718 288.483 188.053 272.647 C 106.387 256.812 91.868 262.432 92.127 262.432 Z"/>
</svg>